<?xml version="1.0" encoding="UTF-8"?>
<svg id="Capa_1" xmlns="http://www.w3.org/2000/svg" version="1.1" viewBox="0 0 722.42 236.18">
  <!-- Generator: Adobe Illustrator 30.0.0, SVG Export Plug-In . SVG Version: 2.1.1 Build 123)  -->
  <defs>
    <style>
      .st0 {
        fill: #fcbd0e;
      }

      .st1 {
        fill: #27377a;
      }

      .st2 {
        fill: #d21b2f;
      }

      .st3 {
        fill: #27377b;
      }

      .st4 {
        fill: #26377b;
      }

      .st5 {
        fill: #fff;
      }

      .st6 {
        fill: #144496;
      }
    </style>
  </defs>
  <g>
    <path class="st6" d="M134.34,136.01c10.35-1.94,18.05-8.26,25.23-15.36,16.61-16.45,28.59-35.98,37.63-57.4,1.86-4.4,5.79-7.09,10.02-6.63,4.63.5,8.03,3.81,8.82,8.57.23,1.41-.03,2.76-.41,4.12-3.93,13.99-10.28,26.89-17.71,39.29-6.02,10.05-12.73,19.62-20.38,28.5-1.8,2.08-1.75,4.39.08,5.95,1.78,1.52,4.16,1.24,5.93-.82,8.23-9.59,15.48-19.88,21.9-30.76,4.22-7.15,8.01-14.52,11.37-22.11,2.08-4.71,7.06-6.8,11.57-5,4.47,1.79,6.77,6.82,5.14,11.58-3.1,9.09-7.34,17.66-12,26.03-6.95,12.49-15.24,24.03-24.65,34.79-1.94,2.22-1.96,4.85-.13,6.48,1.97,1.76,4.58,1.5,6.56-.73,10.21-11.52,19.15-23.91,26.01-37.75,1.62-3.27,4.37-5,8.01-5.06,3.5-.06,6.16,1.53,7.86,4.64.14.26.29.52.45.77.02.04.11.04.28.09,2.38-4.89,4.18-10.02,5.67-15.25,3.8-13.33,4.53-26.72.54-40.14-7.61-25.58-32.67-40.11-57.56-37.49-16.32,1.72-30.01,8.94-42.11,19.62-3.18,2.81-6.2,5.79-8.96,9.03-1.7,1.99-4.94,2.22-6.9.56-2.14-1.8-2.41-5.02-.52-7.33,1.11-1.36,2.34-2.62,3.54-3.91,11.17-12.01,24.15-21.3,39.94-26.26,27.28-8.58,56.65-.71,74.33,22.2,7.58,9.81,11.73,21.12,13.16,33.42,2.21,18.91-2.38,36.46-10.81,53.19-9.4,18.65-22.75,34.27-37.66,48.67-7.11,6.87-14.61,13.3-22.42,19.36-.59.46-1.04,1.22-1.96,1.13,0-1.38,1.02-2.29,1.61-3.38,1.57-2.87,2.57-5.87,2.43-9.19-.22-5.26-4-9.68-9.2-10.41-3.42-.48-6.49.59-8.94,3.06-9.72,9.78-20.77,17.44-34.2,21.19-7.65,2.14-15.38,2.62-23.11.24-2.27-.7-4.42-1.66-6.36-3.04-5.73-4.03-8.92-9.64-9.98-16.47-.86-5.6.22-10.96,2.41-16.14,2.24-5.31,5.58-9.92,9.22-14.31,4.37-5.27,9.03-10.28,13.67-15.3.78-.84,1.63-1.6,2.61-2.21Z"/>
    <path class="st0" d="M134.34,136.01c-5.4,6.13-11.15,11.96-16.32,18.3-4.7,5.77-8.99,11.82-10.59,19.22-2.29,10.65.23,19.8,9.25,26.6-.92.76-1.74.12-2.5-.27-4.54-2.31-8.79-5.08-12.68-8.39-3.1-2.64-6.59-3.96-10.71-3.29-4.94.81-9.09,5.1-9.83,10.09-.88,5.89,1.18,10.78,4.91,15.16.52.61,1.41,1.03,1.16,2.08-3.85-1.94-7.33-4.48-10.89-6.87-9.58-6.43-18.67-13.48-26.93-21.57-5.73-5.61-11.16-11.49-15.09-18.55-2.61-4.69-4-9.75-3.86-15.15.03-1.22-.28-1.48-1.52-1.34-9.39,1.06-16.94-5.94-17.71-15.24-.61-7.29.9-14.34,2.65-21.34.25-1.01.47-1.53-1.01-1.7C4.46,112.8.18,107.87,0,99.5c-.16-7.92,1.58-15.51,4.09-22.94,6.93-20.52,19.02-37.22,37.11-49.34,12.72-8.53,26.77-13.41,42.06-14.56,16.03-1.2,30.83,2.73,44.61,10.82,2.41,1.41,3.28,4.39,2.14,6.79-1.17,2.47-4.04,3.63-6.78,2.62-1.36-.5-2.63-1.22-3.94-1.85-11.35-5.43-23.33-7.7-35.84-6.56-14.57,1.33-27.53,6.93-38.94,15.96-17.22,13.62-27.68,31.51-32.52,52.79-.33,1.47-.64,2.96-.55,4.49.11,1.82.71,3.31,2.63,3.93,1.88.6,3.28-.17,4.51-1.51.63-.69.94-1.54,1.28-2.39,5.23-12.98,12.12-24.95,21.46-35.43,1.64-1.84,3.89-2.39,5.91-1.52,2.02.88,3.25,2.94,3.04,5.1-.1,1.07-.61,1.93-1.28,2.75-15.33,18.6-23.92,40.1-27.37,63.8-.24,1.63-.29,3.26.31,4.85.98,2.58,2.93,3.83,5.64,3.63,2.41-.18,4.45-1.89,4.86-4.4,1.73-10.39,4.69-20.42,8.83-30.09,4.31-10.07,9.7-19.52,16.66-28.02,1.75-2.14,4.67-2.61,6.82-1.06,2.24,1.61,2.8,4.54,1.1,6.91-3.08,4.29-6.03,8.65-8.6,13.25-8.05,14.42-13.26,29.79-15.4,46.18-.64,4.88-.98,9.77-.7,14.68.18,3.07,2.26,5.63,5.05,6.44,3.77,1.09,7.32-.83,8.78-4.74.96-2.55.74-5.26,1.08-7.89,2.68-20.65,9.68-39.4,23.9-55.05,5.34-5.87,11.2-11.09,18.13-15,3.57-2.02,7.38-3.06,11.5-1.93,7.9,2.16,11.02,10.31,6.75,17.49-1.22,2.05-2.9,3.73-4.38,5.56-6.11,7.55-6.86,16.12-1.81,23.71,3.61,5.42,9,8.12,15.32,9.12,2.96.47,5.92.27,8.87-.1Z"/>
    <path class="st2" d="M87.04,215.52c-2.24-2.55-4.42-5.16-5.62-8.38-2.39-6.37-1.21-13.61,4.52-17.56,4.84-3.33,10.98-2.73,15.71,1.41,3.89,3.4,8.23,6.13,12.81,8.5.69.36,1.38.78,2.22.63,6.28,3.96,13.21,4.85,20.42,4.21,11.97-1.08,22.29-6.19,31.82-13.18,4.06-2.98,7.64-6.49,11.31-9.93,3.23-3.03,7.35-3.8,11.5-2.05,4.42,1.86,6.65,5.51,6.97,10.24.32,4.81-1.86,8.78-4.51,12.55-.55.55-1.05,1.17-1.67,1.64-16.77,12.6-34.69,23.19-54.04,31.34-3.47,1.46-6.71,1.65-10.34.41-14.1-4.82-27.33-11.44-40.07-19.08-.36-.22-.68-.5-1.02-.76Z"/>
    <path class="st5" d="M123.76,189.03c1.37-4.38,2.66-8.78,4.14-13.13.43-1.25.1-1.81-.86-2.51-3.09-2.24-6.12-4.55-9.16-6.86-.41-.31-.93-.55-1.14-1.34,4.1,0,8.13-.11,12.16.05,1.94.08,2.83-.43,3.35-2.41,1.03-3.87,2.42-7.65,3.78-11.86,1.49,3.42,2.32,6.62,3.34,9.75,1.44,4.46,1.42,4.47,6.16,4.48,3.19,0,6.39,0,10.15,0-1.99,1.58-3.56,2.85-5.15,4.09-.95.75-1.93,1.46-2.88,2.21-1.24.97-3.07,1.73-3.53,2.99-.52,1.45.71,3.19,1.22,4.78,1.06,3.26,2.25,6.48,3.14,10.31-3.71-2.81-7.14-5.25-10.37-7.92-1.53-1.26-2.52-1.35-4.09-.04-3.21,2.66-6.63,5.07-9.97,7.59-.1-.06-.2-.12-.3-.19Z"/>
  </g>
  <g>
    <path class="st3" d="M675.75,170.56c-3.68.32-7.39.48-11.06.89-1.59.18-2.01-.11-1.98-1.78.38-16.99.99-46.89,1.32-64.56.01-.76-.62-1.36-1.38-1.3-1.38.1-3.28.25-3.28.25,0,0-6.45.52-9.68.77-.94.07-1.45.35-1.25,1.38.04.21,0,.44,0,.66,0,1.57-.42,22.49-.47,25.36-.34,18.44-.72,36.89-1.12,55.33-.02,1.09.24,1.41,1.38,1.31,9.13-.82,18.26-1.58,27.4-2.31,1.16-.09,1.24-.44,1.27-2.01.08-4.58.08-7.56.07-11.97,0-1.74,0-2.12-1.23-2.01Z"/>
    <path class="st4" d="M397.95,107.39c3.89.85,7.8.74,11.7.27,5.55-.67,10.81-2.18,15.29-5.73,6.07-4.82,8.43-11.5,8.98-18.86.74-10.08,1.15-20.18,1.69-30.27.66-12.46,1.29-24.92,1.97-37.38.07-1.24-.09-1.74-1.53-1.62-5.56.49-11.12.87-16.69,1.25-.88.06-1.23.29-1.27,1.24-.66,14.29-1.35,28.57-2.07,42.86-.41,8.16-.86,16.32-1.32,24.48-.1,1.72-.47,3.39-1.45,4.86-1.28,1.9-3.83,2.69-6.35,1.99-1.76-.48-2.67-1.88-2.8-4.39-.06-1.16-.07-2.32-.01-3.48.34-7.06.7-14.12,1.06-21.18.38-7.56.77-15.11,1.17-22.67.37-7.11.73-14.23,1.15-21.34.07-1.15-.09-1.5-1.36-1.4-5.61.45-11.24.81-16.86,1.14-1.08.06-1.49.34-1.54,1.51-.37,8.61-.82,17.21-1.25,25.81-.64,12.57-1.29,25.15-1.93,37.72-.14,3.75-.29,7.49.31,11.23,1.21,7.51,5.68,12.32,13.12,13.95Z"/>
    <path class="st4" d="M492.19,99.12c2.63-.31,5.28-.45,7.91-.73,6.25-.68,12.58-.74,18.76-1.98,6.13-1.23,11.52-3.78,15.1-9.22,3.42-5.21,4.46-11.1,4.71-17.17.44-10.59.85-21.19,1.19-31.78.17-5.4.83-10.79-.12-16.19-1.34-7.63-5.39-11.95-12.94-13.61-3.65-.8-7.34-.82-11.04-.56-6.67.46-13.33.98-20,1.37-1.4.08-1.7.6-1.75,1.88-.53,14.46-1.11,28.91-1.67,43.36,0,0,0,0,.01,0-.34,8-.69,16-1,24-.25,6.4-.41,12.81-.71,19.21-.06,1.32.32,1.59,1.55,1.44ZM509.92,79.81c.09-2.43.19-4.85.29-7.28.65-15.61,1.3-31.22,1.92-46.83.04-.98.27-1.37,1.29-1.34.99.03,1.98-.18,2.97-.2,2.91-.06,4.32,1.06,4.82,3.89.58,3.29.21,6.61.11,9.91-.13,4.19-.31,8.38-.48,12.58.02,0,.05,0,.07,0-.36,7.66-.68,15.33-1.11,22.98-.3,5.45-3.75,8.1-9.22,7.31-.79-.11-.67-.57-.66-1.04Z"/>
    <path class="st1" d="M590.39,70.67c.69-8.8.8-17.65,1.16-26.48-.02,0-.04,0-.07,0,.18-4.58.41-9.16.52-13.74.1-4.41.5-8.82-.19-13.23-1.21-7.67-5.62-12.41-13.2-14.04-6.52-1.4-12.86-.51-19,1.84-5.88,2.24-9.9,6.44-12.3,12.25-1.76,4.25-2.29,8.7-2.44,13.25-.34,10.32-.85,20.64-1.11,30.96-.13,5.29-.65,10.58-.13,15.89.8,8.18,5.03,13.89,12.06,15.91,3.23.93,6.53,1.02,9.86.8,5.53-.37,10.82-1.57,15.43-4.84,6.38-4.53,8.83-11.22,9.41-18.57ZM573.83,26.34c-.26,7-.52,14.01-.78,21.01,0,0-.01,0-.02,0-.28,7.44-.56,14.89-.84,22.33-.05,1.44-.21,2.87-.68,4.23-.95,2.76-3.45,4.14-6.28,3.53-1.79-.39-2.79-1.58-2.99-3.87-.35-4.08.03-8.16.15-12.23.24-8.22.56-16.43.89-24.65.16-4.02.18-8.06.65-12.06.44-3.74,2.29-5.72,5.35-5.83,2.41-.09,3.69.9,4.23,3.27.32,1.41.36,2.84.3,4.28Z"/>
    <path class="st1" d="M640.94,79.2s0,0,0,0h0c-.04-.32-.08-.63-.12-.95-.46-1.55-.95-3.09-1.11-4.71,0,0,0,0,0,0-1.93-7.92-3.85-15.83-5.79-23.75-.19-.76-.11-1.31.62-1.83,3.59-2.57,5.7-6.2,6.56-10.41,1.62-7.9,1.85-15.91.61-23.87-.95-6.14-4.42-10.49-10.52-12.43-3.35-1.06-6.83-1.41-10.3-1.21-7.28.42-14.54,1.03-21.81,1.51-.98.06-1.3.34-1.33,1.36-.11,4.64-.31,9.27-.47,13.91-.84,24.01-1.67,48.02-2.54,72.03-.04,1.06.17,1.43,1.33,1.32,5.22-.5,10.45-.93,15.68-1.32.94-.07,1.17-.42,1.19-1.31.32-10.54.71-21.09,1-31.63.04-1.32.33-1.82,1.68-1.89,1.12-.06,1.77.09,1.88,1.33.07.76.29,1.52.44,2.27,1.88,9.68,3.76,19.37,5.62,29.06.13.69.28,1.11,1.12,1.04,5.5-.49,11-.94,16.5-1.42.53-.05,1.16-.05,1.09-.87h0c-.12-.64-.25-1.27-.37-1.9-.32-1.44-.65-2.88-.97-4.33ZM623.95,33.23c-.49,4.23-2.23,5.94-6.48,6.17-2.91.16-2.86.16-2.81-2.77.06-2.87.01-5.74.01-8.6.23,0,.46,0,.68,0,0-3.47.03-6.95-.02-10.42-.01-.93.33-1.31,1.22-1.3.11,0,.22-.02.33-.03,5.74-.57,7.37.8,7.43,6.54.04,3.47.04,6.95-.36,10.42Z"/>
    <path class="st3" d="M340.55,111.34c5.57,1.87,11.22,1.55,16.87.58,9.69-1.68,17.04-6.4,20.46-16.11,2.15-6.11,1.97-12.49,2.36-18.81.06-1-.56-.88-1.17-.84-5.78.43-11.56.89-17.35,1.29-.89.06-1.06.41-1.08,1.21-.06,2.48-.18,4.97-.35,7.45-.15,2.2-.25,4.43-1.35,6.42-1.2,2.18-3.91,3.33-6.39,2.77-2.08-.48-3.11-1.95-3.2-4.79-.07-2.26-.01-4.53-.01-6.79.05,0,.09,0,.14,0,.31-5.84.61-11.69.94-17.53.44-7.77.88-15.55,1.36-23.32.11-1.76.38-3.51,1.21-5.12,1.09-2.1,3.67-3.35,5.99-2.93,2.24.41,3.14,1.59,3.43,4.57.33,3.48-.1,6.95-.32,10.41-.06.93.08,1.29,1.09,1.21,5.84-.46,11.67-.88,17.51-1.28.61-.04.87-.19.89-.85.13-5.02.8-10.01.33-15.05-.67-7.21-4.59-12.52-11.1-14.61-5.33-1.72-10.77-1.56-16.21-.61-5.59.97-10.78,2.88-14.96,6.88-5.45,5.22-7.65,11.93-8.1,19.21-.74,11.85-1.26,23.71-1.81,35.57-.25,5.34-.94,10.68-.25,16.04.91,7.06,3.87,12.61,11.08,15.03Z"/>
    <path class="st3" d="M491.78,115.82c-3.68.39-7.38.63-11.07.77-1.31.05-1.63.4-1.66,1.69-.2,9.72-.5,19.44-.72,29.15-.08,3.33-.01,6.66-.01,9.99-.14,0-.28,0-.42,0-2.83-12.85-5.68-25.7-8.45-38.56-.24-1.13-.66-1.42-1.74-1.33-4.02.31-8.04.56-12.07.83-.99.07-2.21-.17-2.91.33-.86.61-.19,1.95-.37,2.96-.1.54-.13,1.1-.15,1.65-.81,21.03-1.61,42.05-2.41,63.08-.23,5.96-.42,11.92-.63,17.88-.02.66-.19,1.31.94,1.2,4.34-.43,8.69-.81,13.04-1.15.85-.07.94-.48.96-1.17.21-6.62.43-13.25.68-19.87.3-8.1.63-16.2.96-24.42.17.2.29.27.3.35,3.01,14.18,6.02,28.36,8.66,42.61.22,1.16.61,1.51,1.82,1.39,4.29-.42,8.58-.76,12.88-1.02,1.18-.07,1.43-.5,1.46-1.59.34-11.87.73-23.74,1.12-35.6.52-15.79,1.03-31.58,1.6-47.36.05-1.47-.2-1.98-1.82-1.81Z"/>
    <path class="st4" d="M436.06,104.05c5.39-.52,10.78-.96,16.18-1.38.86-.07,1.2-.36,1.33-1.27.59-4.04,1.29-8.06,1.93-12.09.12-.73.13-1.39,1.16-1.46,3.14-.21,6.28-.46,9.41-.76,1.04-.1,1.3.28,1.35,1.26.23,3.86.58,7.71.8,11.57.06,1.04.39,1.26,1.4,1.17,5.66-.52,11.33-.99,17.01-1.41,1.18-.09.95-.66.85-1.42-1.27-10.63-2.5-21.26-3.78-31.89-1.15-9.53-2.37-19.05-3.55-28.57-1.02-8.26-2.05-16.53-3.04-24.8-.27-2.25-.21-2.26-2.45-2.15-6.39.46-12.78.97-19.17,1.34-1.34.08-1.75.57-1.98,1.79-.97,5.08-2,10.16-3.08,15.22-5.22,24.45-10.55,48.88-15.55,73.38-.26,1.27-.19,1.61,1.2,1.47ZM458.23,71.37c1.58-9.63,3.14-19.26,4.69-28.89.25-1.52.46-3.04.69-4.56.09,0,.17.01.26.02.4,5.31.81,10.62,1.21,15.93.41,5.56.8,11.12,1.24,16.67.08.97-.11,1.38-1.18,1.42-1.98.08-3.96.27-5.94.5-.98.11-1.11-.26-.97-1.1Z"/>
    <path class="st3" d="M678.24,186.24c4.62-.49,9.25-.9,13.88-1.31.74-.06,1.03-.34,1.14-1.2.51-3.82,1.11-7.63,1.65-11.44.1-.7.11-1.32,1-1.38,2.69-.2,5.39-.44,8.07-.72.89-.09,1.11.27,1.16,1.2.19,3.65.5,7.3.69,10.95.05.99.34,1.19,1.2,1.11,4.86-.49,9.72-.94,14.59-1.34,1.01-.08.81-.62.73-1.35-1.09-10.06-2.14-20.12-3.25-30.18-.99-9.02-2.04-18.03-3.05-27.05-.88-7.82-1.76-15.64-2.61-23.47-.23-2.13-.18-2.14-2.11-2.04-5.48.43-10.96.91-16.45,1.27-1.15.07-1.5.54-1.7,1.7-.83,4.81-1.71,9.61-2.64,14.41-4.48,23.14-9.05,46.27-13.34,69.45-.22,1.21-.16,1.52,1.03,1.39ZM697.26,155.31c1.35-9.11,2.69-18.23,4.03-27.35.21-1.43.39-2.87.59-4.31.07,0,.15.01.22.02.35,5.03.7,10.05,1.04,15.08.36,5.26.68,10.52,1.06,15.78.07.92-.09,1.3-1.01,1.34-1.7.07-3.4.26-5.09.48-.84.11-.95-.24-.83-1.04Z"/>
    <path class="st3" d="M282.06,116.91c3.46-.37,6.93-.64,10.39-.93,10.29-.86,20.58-1.74,30.87-2.54,1.18-.09,1.55-.43,1.6-1.64.2-4.91.45-9.82.84-14.72.11-1.42-.09-1.8-1.57-1.67-6.6.59-13.21,1.05-19.81,1.62-1.38.12-1.92-.11-1.81-1.68.41-5.95.71-11.91.96-17.86.05-1.15.46-1.45,1.52-1.52,5.12-.35,10.24-.81,15.36-1.14,1.29-.08,1.91-.33,1.96-1.85.14-4.69.46-9.37.78-14.06.08-1.14-.51-1.1-1.3-1.04-5.34.39-10.69.73-16.03,1.16-1.04.08-1.32-.15-1.25-1.2.33-5.24.63-10.47.86-15.71.04-1,.47-1.12,1.29-1.18,6.61-.48,13.21-1.03,19.82-1.49,1.01-.07,1.28-.37,1.31-1.36.1-3.09.32-6.17.49-9.26,0,0,.02,0,.03,0,.09-1.82.05-3.66.31-5.45.21-1.51-.29-1.71-1.65-1.61-13.54,1.04-27.09,2.04-40.64,3-1,.07-1.28.39-1.32,1.37-.54,12.47-1.11,24.94-1.69,37.4-.36,7.78-.74,15.55-1.14,23.33-.49,9.59-.99,19.19-1.53,28.78-.06,1.13.24,1.38,1.35,1.26Z"/>
    <path class="st3" d="M409.97,118.46c-4.89.51-9.8.79-14.7,1.08-1,.06-1.38.29-1.53,1.37-2.89,20.09-5.83,40.18-8.8,60.52-.69-11.46-1.36-22.7-2.05-33.94-.49-7.99-1.03-15.98-1.53-23.97-.05-.73.04-1.38-1.11-1.28-5.5.47-11.01.87-16.52,1.26-.8.06-1.01.3-.93,1.1.91,8.62,1.76,17.24,2.66,25.86,1.04,10.04,2.15,20.08,3.17,30.13,1.03,10.21,2,20.43,2.94,30.65.09.96.46,1.05,1.23.98,7.04-.62,14.09-1.24,21.13-1.82.81-.07,1.1-.39,1.24-1.19,1.3-7.38,2.63-14.76,3.98-22.13,3.15-17.24,6.3-34.47,9.46-51.71.92-5.04,1.86-10.09,2.77-15.13.19-1.06.46-1.96-1.38-1.77Z"/>
    <path class="st3" d="M606.51,107.82c-4.02.32-8.04.61-12.06.83-1.01.05-1.4.26-1.42,1.38-.16,9.88-.39,19.77-.59,29.65-.22,10.88-.42,21.76-.62,32.64-.03,1.44-.13,2.87-.65,4.23-.71,1.87-2.32,2.89-4.26,2.73-1.71-.14-2.76-1.22-3.02-3.38-.18-1.53-.2-3.09-.16-4.63.43-20.1.86-40.2,1.35-60.3.03-1.3-.24-1.7-1.61-1.57-4.4.4-8.81.69-13.22.93-1.04.06-1.27.42-1.28,1.39-.16,11.21-.36,22.42-.55,33.63-.15,0-.29,0-.44,0,0,5.96-.02,11.93,0,17.89.02,6.07-.61,12.14.23,18.2,1.08,7.73,5.32,12.5,12.51,13.64,4.35.69,8.71.28,12.94-1.03,6.08-1.88,10.08-5.88,12.17-11.88,1.27-3.65,1.65-7.42,1.73-11.23.18-8.67.29-17.34.45-26.01.22-11.71.47-23.41.71-35.12.05-2.23.05-2.18-2.22-2Z"/>
    <path class="st3" d="M446.41,118.99c-10.3.79-20.6,1.53-30.9,2.24-.87.06-1.11.33-1.11,1.17-.02,2.21-.14,4.41-.23,6.62-.51,11.97-1.02,23.95-1.53,35.92-.13,0-.25,0-.38,0,0,2.98.1,5.96-.02,8.94-.46,11.26-.97,22.51-1.5,33.77-.04.9.19,1.11,1.1,1.03,10.78-.93,21.57-1.84,32.36-2.7,1.06-.08,1.51-.32,1.54-1.5.12-4.8.3-9.61.57-14.4.08-1.37-.41-1.51-1.59-1.4-4.84.46-9.69.81-14.52,1.25-1.07.1-1.57,0-1.5-1.32.32-5.85.56-11.7.77-17.55.04-1,.26-1.41,1.37-1.48,3.97-.23,7.93-.63,11.89-.88.99-.06,1.29-.34,1.31-1.34.1-4.42.25-8.83.46-13.25.06-1.16-.3-1.38-1.39-1.28-3.79.36-7.6.6-11.39.96-1.18.11-1.5-.22-1.44-1.4.26-4.91.46-9.82.61-14.73.03-.93.34-1.16,1.24-1.22,4.68-.29,9.36-.69,14.05-.97,1.12-.07,1.48-.42,1.51-1.55.12-4.42.27-8.83.56-13.24.1-1.57-.42-1.8-1.83-1.7Z"/>
    <path class="st3" d="M528.76,113.25c-9.74.74-19.49,1.41-29.25,2.04-1.21.08-1.1.73-1.13,1.52-.4,13.91-.81,27.82-1.22,41.73-.01,0-.02,0-.03,0-.19,6.57-.37,13.14-.56,19.71-.21,7.23-.4,14.46-.7,21.69-.06,1.49.41,1.8,1.74,1.58,1.2-.2,2.42-.24,3.63-.34,8.86-.75,17.71-1.5,26.57-2.22.92-.07,1.2-.39,1.21-1.29.09-4.8.2-9.61.39-14.4.04-1.11-.32-1.27-1.31-1.18-4.56.41-9.14.71-13.7,1.16-1.56.16-1.92-.33-1.85-1.84.27-5.57.46-11.14.55-16.72.02-1.28.46-1.54,1.61-1.6,3.58-.2,7.16-.53,10.74-.8.83-.06,1.4-.16,1.41-1.29.03-4.36.14-8.72.3-13.08.04-1.13-.29-1.39-1.38-1.29-3.46.34-6.94.52-10.4.87-1.36.14-1.77-.19-1.7-1.63.24-4.69.36-9.38.44-14.07.02-1.11.29-1.49,1.46-1.54,4.41-.21,8.82-.58,13.23-.83.91-.05,1.33-.23,1.34-1.31.03-4.42.13-8.83.33-13.25.07-1.45-.36-1.71-1.74-1.6Z"/>
    <path class="st3" d="M564.01,110.84c-4.13.33-8.26.56-12.39.84-5.51.37-11.02.75-16.53,1.13-.74.05-1.49-.05-1.49,1.18-.02,4.53-.14,9.06-.26,13.58-.02.86.31,1.06,1.06.95.49-.07.99-.1,1.48-.14,4.23-.31,8.46-.61,12.8-.92-.07.44-.08.72-.16.97-4.26,14.26-8.52,28.52-12.96,42.73-2.19,7.02-5.06,13.92-4.2,21.56.15,1.36.08,2.77-.06,4.14-.15,1.44.23,1.86,1.75,1.73,10.12-.87,20.25-1.66,30.38-2.43.98-.07,1.14-.48,1.16-1.34.07-4.31.2-8.61.3-12.92q.05-2.15-2.18-1.99c-.94.07-1.87.15-2.81.23-3.79.3-7.57.59-11.48.9.43-1.52.79-2.84,1.18-4.16,4.68-15.67,9.38-31.35,14.04-47.03.56-1.89,1.46-3.73,1.52-5.73.12-4.03.07-8.06.17-12.09.03-1.06-.3-1.28-1.32-1.2Z"/>
    <path class="st3" d="M306.63,159.55c.35,2.99,1.5,5.56,4.36,6.96,7.79,3.84,17.73-1.24,19.17-9.78.62-3.65.61-7.36.83-11.04.31-5.17.85-10.34.8-15.53-.04-4.12-2.31-7.29-5.95-8.47-1.82-.59-3.71-.51-5.58-.41-6.69.34-11.79,5.16-12.29,11.83-.58,7.75-.97,15.52-1.44,23.29h.08c0,1.05-.1,2.11.02,3.15ZM315.9,155.57h.05c.43-7.37.85-14.74,1.3-22.11.03-.49.17-.97.29-1.46.36-1.57,1.51-2.49,2.93-2.34,1.68.18,1.97,1.48,1.97,2.78,0,2.04-.19,4.07-.3,6.11-.3,5.45-.6,10.9-.93,16.35-.05.76-.16,1.54-.38,2.27-.44,1.46-1.52,2.19-3.01,2.04-1.54-.15-1.82-1.39-1.91-2.67-.02-.33,0-.66,0-.99Z"/>
    <path class="st3" d="M348.69,119.64c-3.64.08-7.27.43-10.89.74-2.58.22-2.57.29-2.71,2.97-.06,1.1-.15,2.2-.21,3.3-.45,7.82-.9,15.64-1.33,23.47-.25,4.57-.45,9.15-.73,13.72-.07,1.07.27,1.33,1.29,1.2,2.13-.27,4.27-.55,6.42-.63,1.27-.05,1.51-.55,1.56-1.71.2-4.85.52-9.69.78-14.54.03-.6.08-1.06.88-1.07.69,0,1.03.19,1.07.89.02.38.17.75.23,1.13.8,4.5,1.61,8.99,2.37,13.5.13.75.41,1.04,1.2.95,2.35-.28,4.71-.59,7.07-.73,1.4-.08,1.39-.61,1.12-1.77-1.17-5.03-2.24-10.08-3.29-15.14-.15-.72-.67-1.54.25-2.26,1.87-1.45,2.8-3.47,3.35-5.73.55-2.28.54-4.59.64-6.91,0-.94.04-1.88,0-2.81-.26-5.77-3.26-8.71-9.06-8.58ZM348.7,132.47c-.08.99-.17,2.37-.31,3.74-.24,2.35-1.88,3.58-4.25,3.33-.61-.07-.75-.31-.72-.82.2-3.35.42-6.7.6-10.06.04-.74.48-.76,1-.76,1.23,0,2.61-.44,3.33,1.09.46.99.35,2.05.35,3.48Z"/>
    <path class="st3" d="M280.85,170.74c2.29-.32,4.6-.55,6.91-.69.96-.06,1.32-.31,1.36-1.33.16-3.81.42-7.61.64-11.41q.17-2.92,2.96-3.32c.6-.09,1.21-.13,1.8-.24,4.59-.82,8.15-2.97,9.77-7.61,1.22-3.5,1.1-7.17,1.31-10.79,0-1.05.05-2.1,0-3.15-.24-4.08-2.43-6.88-6.18-7.82-1.5-.38-3.05-.49-4.6-.36-3.9.32-7.81.66-11.71.95-.76.06-1.04.29-1.08,1.08-.17,3.36-.41,6.72-.62,10.07-.4,6.5-.81,13-1.19,19.5-.27,4.63-.47,9.26-.77,13.89-.07,1.16.28,1.39,1.39,1.23ZM290.42,145.13c.23-3.84.47-7.69.68-11.53.04-.7.35-.92,1-1.03,3-.48,3.98.33,3.98,3.33,0,.72,0,1.43,0,2.15-.08,1.7-.04,3.42-.47,5.09-.53,2.03-2.83,3.41-4.74,2.9-.55-.15-.46-.53-.44-.9Z"/>
    <path class="st3" d="M354.1,168.58c-6.35.14-12.65.87-18.96,1.52-13.92,1.44-27.72,3.67-41.34,6.9-4.5,1.07-9.01,2.08-13.29,3.9-1.27.54-2.09,1.4-2.08,2.86.03,2.74,1.84,4.07,4.45,3.26.84-.26,1.68-.55,2.53-.76,12.75-3.25,25.63-5.8,38.59-8.03,10.16-1.74,20.52-2.01,30.6-4.35,1.84-.43,2.85-1.17,2.69-2.45-.2-1.67-1.55-2.88-3.19-2.84Z"/>
    <path class="st3" d="M643.82,106.04c-9.74.72-19.49,1.37-29.25,1.97-1.21.08-1.1.71-1.13,1.47-.4,13.48-.81,26.96-1.22,40.43-.01,0-.02,0-.03,0-.19,6.37-.37,12.73-.56,19.1-.21,7.01-.4,14.01-.7,21.02-.06,1.44.41,1.75,1.74,1.53,1.2-.19,2.42-.23,3.63-.33,8.86-.72,17.71-1.46,26.57-2.15.92-.07,1.2-.38,1.21-1.25.09-4.65.2-9.31.39-13.96.04-1.07-.32-1.23-1.31-1.14-4.56.4-9.14.68-13.7,1.12-1.56.15-1.92-.32-1.85-1.78.27-5.4.46-10.8.55-16.2.02-1.24.46-1.49,1.61-1.55,3.58-.2,7.16-.51,10.74-.77.83-.06,1.4-.16,1.41-1.25.03-4.23.14-8.45.3-12.68.04-1.1-.29-1.35-1.38-1.25-3.46.33-6.94.51-10.4.84-1.36.13-1.77-.19-1.7-1.58.24-4.54.36-9.09.44-13.64.02-1.08.29-1.44,1.46-1.49,4.41-.21,8.82-.56,13.23-.81.91-.05,1.33-.22,1.34-1.27.03-4.28.13-8.56.33-12.84.07-1.4-.36-1.66-1.74-1.55Z"/>
  </g>
</svg>